<svg xmlns="http://www.w3.org/2000/svg" xmlns:xlink="http://www.w3.org/1999/xlink" width="614" height="570" viewBox="0 0 614 570">
  <defs>
    <clipPath id="clip-path">
      <path id="Path_118" data-name="Path 118" d="M77,99.074H691v570H77Zm0,0"/>
    </clipPath>
    <linearGradient id="linear-gradient" x1="0.5" y1="0.929" x2="1.383" y2="0.161" gradientUnits="objectBoundingBox">
      <stop offset="0" stop-color="#3aafe9"/>
      <stop offset="1" stop-color="#0d7ddd"/>
    </linearGradient>
  </defs>
  <g id="news_downloader_6_" data-name="news downloader (6)" transform="translate(-77 -99.074)">
    <g id="Group_1034" data-name="Group 1034" clip-path="url(#clip-path)">
      <path id="Path_117" data-name="Path 117" d="M603.047,186.766H405.836a57.938,57.938,0,0,1-41.414-17.43L321.8,125.492a88.035,88.035,0,0,0-13.426-11.25q-3.633-2.466-7.488-4.562A87.5,87.5,0,0,0,258.8,99.074h-94q-2.157,0-4.3.105t-4.293.316c-1.426.141-2.852.316-4.27.527s-2.832.454-4.238.735-2.805.594-4.2.941-2.774.735-4.149,1.149-2.734.867-4.086,1.351-2.687,1-4.011,1.551-2.637,1.129-3.934,1.742-2.578,1.258-3.844,1.938-2.511,1.383-3.742,2.121-2.441,1.5-3.633,2.3-2.367,1.625-3.519,2.48-2.281,1.734-3.391,2.645-2.195,1.847-3.258,2.812-2.1,1.953-3.117,2.969-2,2.055-2.965,3.117-1.9,2.148-2.809,3.258-1.793,2.242-2.648,3.394-1.68,2.325-2.477,3.52-1.562,2.406-2.3,3.637-1.445,2.476-2.121,3.742-1.32,2.551-1.934,3.847-1.2,2.61-1.746,3.934-1.062,2.664-1.547,4.016-.933,2.715-1.348,4.086-.8,2.757-1.148,4.148-.664,2.793-.942,4.2-.527,2.824-.738,4.242-.383,2.844-.523,4.274-.246,2.855-.32,4.289-.105,2.871-.105,4.305V581.379q0,2.155.105,4.3t.32,4.293c.141,1.429.313,2.851.523,4.269s.457,2.836.738,4.242.594,2.809.942,4.2.73,2.777,1.148,4.148.863,2.734,1.348,4.086,1,2.691,1.547,4.016,1.133,2.64,1.746,3.937,1.258,2.578,1.934,3.844,1.383,2.515,2.121,3.746,1.5,2.441,2.3,3.637,1.621,2.363,2.477,3.515,1.738,2.285,2.648,3.4,1.844,2.195,2.809,3.258,1.954,2.1,2.965,3.117,2.055,2.008,3.117,2.968,2.149,1.9,3.258,2.813,2.239,1.793,3.391,2.648,2.324,1.68,3.519,2.477,2.4,1.566,3.633,2.3,2.477,1.445,3.742,2.121,2.547,1.32,3.844,1.933,2.61,1.2,3.934,1.746,2.664,1.067,4.011,1.547,2.715.934,4.086,1.352,2.754.8,4.149,1.148,2.789.664,4.2.942,2.82.527,4.238.738,2.844.387,4.27.527,2.859.246,4.293.317,2.863.1,4.3.1H603.047q2.149,0,4.3-.1t4.289-.317q2.143-.21,4.269-.527c1.422-.211,2.832-.457,4.239-.738s2.808-.594,4.2-.942,2.773-.73,4.144-1.148,2.735-.867,4.086-1.352,2.688-1,4.016-1.547,2.637-1.132,3.933-1.746,2.575-1.257,3.84-1.933,2.516-1.383,3.746-2.121,2.442-1.508,3.633-2.3,2.363-1.621,3.516-2.477,2.285-1.738,3.394-2.648,2.192-1.848,3.258-2.813,2.1-1.953,3.113-2.968,2-2.051,2.969-3.117,1.9-2.149,2.809-3.258,1.793-2.239,2.644-3.4,1.684-2.324,2.481-3.515,1.562-2.407,2.3-3.637,1.445-2.481,2.121-3.746,1.32-2.547,1.933-3.844,1.2-2.609,1.742-3.937,1.067-2.665,1.547-4.016.934-2.711,1.352-4.086.8-2.754,1.148-4.148.66-2.793.942-4.2.523-2.82.734-4.242.387-2.84.527-4.269.247-2.86.317-4.293.1-2.868.1-4.3V274.457q0-2.151-.1-4.3c-.07-1.433-.176-2.867-.317-4.293s-.316-2.851-.527-4.273-.453-2.832-.734-4.238-.594-2.809-.942-4.2-.73-2.773-1.148-4.144-.867-2.738-1.352-4.09-1-2.687-1.547-4.016-1.128-2.636-1.742-3.933-1.258-2.578-1.933-3.844-1.383-2.516-2.121-3.746-1.5-2.441-2.3-3.637-1.625-2.367-2.481-3.519-1.734-2.281-2.644-3.391-1.848-2.2-2.809-3.262-1.953-2.1-2.969-3.117-2.05-2-3.113-2.969-2.152-1.9-3.258-2.808-2.242-1.793-3.394-2.649-2.324-1.683-3.516-2.48-2.406-1.563-3.633-2.3-2.48-1.445-3.746-2.121-2.547-1.324-3.84-1.937-2.609-1.2-3.933-1.743-2.664-1.066-4.016-1.55-2.711-.934-4.086-1.348-2.754-.8-4.144-1.148-2.789-.665-4.2-.946-2.817-.523-4.239-.734-2.84-.387-4.269-.527-2.856-.247-4.289-.317S604.48,186.766,603.047,186.766ZM449.66,568.227a13.062,13.062,0,0,1-1,5.035,12.928,12.928,0,0,1-1.215,2.273,13.068,13.068,0,0,1-1.632,1.992,13.254,13.254,0,0,1-1.993,1.637,12.893,12.893,0,0,1-2.273,1.215,13.062,13.062,0,0,1-5.031,1H331.336a13.163,13.163,0,0,1-2.566-.25,13.214,13.214,0,0,1-4.739-1.965,12.859,12.859,0,0,1-1.992-1.637,13.158,13.158,0,0,1-1.637-1.992,13.545,13.545,0,0,1-1.214-2.273,13.213,13.213,0,0,1-1-5.035V550.688a13.172,13.172,0,0,1,1-5.032,13.045,13.045,0,0,1,2.851-4.269,13.09,13.09,0,0,1,1.992-1.637,13.491,13.491,0,0,1,2.274-1.215,13.287,13.287,0,0,1,2.465-.746,12.863,12.863,0,0,1,2.566-.254h105.18a12.8,12.8,0,0,1,2.562.254,13.077,13.077,0,0,1,4.742,1.961,13.5,13.5,0,0,1,1.993,1.637,13.267,13.267,0,0,1,1.632,1.992,13.259,13.259,0,0,1,1.965,4.742,13.171,13.171,0,0,1,.25,2.567Zm33.965-140.309H462.809a13.175,13.175,0,0,0-2.567.254,13.2,13.2,0,0,0-4.738,1.965,13.176,13.176,0,0,0-5.59,8.371,13.165,13.165,0,0,0-.254,2.566v39.461a13.178,13.178,0,0,1-.25,2.567,13.192,13.192,0,0,1-3.6,6.734,13.63,13.63,0,0,1-1.993,1.637,13.1,13.1,0,0,1-7.3,2.215H331.336a13.169,13.169,0,0,1-10.934-5.844,13.555,13.555,0,0,1-1.214-2.274,13.2,13.2,0,0,1-1-5.035V441.074a13.14,13.14,0,0,0-2.215-7.308,13.205,13.205,0,0,0-3.629-3.629,12.661,12.661,0,0,0-2.274-1.215,12.917,12.917,0,0,0-2.465-.75,13.165,13.165,0,0,0-2.566-.254H284.223a13.126,13.126,0,0,1-6.973-2.309,13.146,13.146,0,0,1-5.6-9.277A13.184,13.184,0,0,1,274.91,406l99.7-99.75a13.108,13.108,0,0,1,6.742-3.613,13.121,13.121,0,0,1,9.887,1.972,13.179,13.179,0,0,1,2,1.641L493.484,406a13.134,13.134,0,0,1,3.2,6.758,13.171,13.171,0,0,1-1,7.41,13.144,13.144,0,0,1-8.313,7.231A13,13,0,0,1,483.625,427.918Zm0,0" stroke="rgba(0,0,0,0)" stroke-miterlimit="10" stroke-width="1" fill="url(#linear-gradient)"/>
    </g>
  </g>
</svg>
